<svg xmlns="http://www.w3.org/2000/svg" xmlns:xlink="http://www.w3.org/1999/xlink" width="500" zoomAndPan="magnify" viewBox="0 0 375 374.999991" height="500" preserveAspectRatio="xMidYMid meet" version="1.0"><defs><g/><clipPath id="e2a446ba61"><path d="M 238.535156 155.140625 L 316.65625 155.140625 L 316.65625 233.261719 L 238.535156 233.261719 Z M 238.535156 155.140625 " clip-rule="nonzero"/></clipPath><clipPath id="57ca4dc98c"><path d="M 277.59375 155.140625 C 256.023438 155.140625 238.535156 172.628906 238.535156 194.199219 C 238.535156 215.773438 256.023438 233.261719 277.59375 233.261719 C 299.167969 233.261719 316.65625 215.773438 316.65625 194.199219 C 316.65625 172.628906 299.167969 155.140625 277.59375 155.140625 Z M 277.59375 155.140625 " clip-rule="nonzero"/></clipPath><clipPath id="091f517cdd"><path d="M 319 319 L 324 319 L 324 324 L 319 324 Z M 319 319 " clip-rule="nonzero"/></clipPath><clipPath id="eeefd1e85b"><path d="M 37.5 42 L 43 42 L 43 320 L 37.5 320 Z M 37.5 42 " clip-rule="nonzero"/></clipPath><clipPath id="b6c3c09c68"><path d="M 37.5 319 L 43 319 L 43 324 L 37.5 324 Z M 37.5 319 " clip-rule="nonzero"/></clipPath><clipPath id="c1067a19fe"><path d="M 319 42 L 324 42 L 324 320 L 319 320 Z M 319 42 " clip-rule="nonzero"/></clipPath><clipPath id="5973d51190"><path d="M 42 319 L 320 319 L 320 324 L 42 324 Z M 42 319 " clip-rule="nonzero"/></clipPath><clipPath id="c79423fc51"><path d="M 319 37.5 L 324 37.5 L 324 43 L 319 43 Z M 319 37.5 " clip-rule="nonzero"/></clipPath><clipPath id="a73e12411c"><path d="M 37.5 37.5 L 43 37.5 L 43 43 L 37.5 43 Z M 37.5 37.5 " clip-rule="nonzero"/></clipPath><clipPath id="26d3cfa9f9"><path d="M 42 37.5 L 320 37.5 L 320 43 L 42 43 Z M 42 37.5 " clip-rule="nonzero"/></clipPath><clipPath id="96c0513b08"><path d="M 332 334 L 337.425781 334 L 337.425781 338.871094 L 332 338.871094 Z M 332 334 " clip-rule="nonzero"/></clipPath><clipPath id="9a930f51fd"><path d="M 50.925781 57 L 56 57 L 56 335 L 50.925781 335 Z M 50.925781 57 " clip-rule="nonzero"/></clipPath><clipPath id="e2f0e4e569"><path d="M 50.925781 334 L 56 334 L 56 338.871094 L 50.925781 338.871094 Z M 50.925781 334 " clip-rule="nonzero"/></clipPath><clipPath id="5af511dc4c"><path d="M 332 57 L 337.425781 57 L 337.425781 335 L 332 335 Z M 332 57 " clip-rule="nonzero"/></clipPath><clipPath id="51856576d4"><path d="M 55 334 L 333 334 L 333 338.871094 L 55 338.871094 Z M 55 334 " clip-rule="nonzero"/></clipPath><clipPath id="367f1ee8ca"><path d="M 332 52.371094 L 337.425781 52.371094 L 337.425781 58 L 332 58 Z M 332 52.371094 " clip-rule="nonzero"/></clipPath><clipPath id="1122f2b94e"><path d="M 50.925781 52.371094 L 56 52.371094 L 56 58 L 50.925781 58 Z M 50.925781 52.371094 " clip-rule="nonzero"/></clipPath><clipPath id="f959e72f75"><path d="M 55 52.371094 L 333 52.371094 L 333 58 L 55 58 Z M 55 52.371094 " clip-rule="nonzero"/></clipPath></defs><rect x="-37.5" width="450" fill="#ffffff" y="-37.499999" height="449.999989" fill-opacity="1"/><rect x="-37.5" width="450" fill="#9d9dcc" y="-37.499999" height="449.999989" fill-opacity="1"/><g clip-path="url(#e2a446ba61)"><g clip-path="url(#57ca4dc98c)"><path fill="#ffffff" d="M 238.535156 155.140625 L 316.65625 155.140625 L 316.65625 233.261719 L 238.535156 233.261719 Z M 238.535156 155.140625 " fill-opacity="1" fill-rule="nonzero"/></g></g><g fill="#171717" fill-opacity="1"><g transform="translate(66.983357, 204.374987)"><g><path d="M 25.6875 -38.734375 L 40.28125 0 L 29.546875 0 L 27.015625 -6.734375 L 13.15625 -6.734375 L 10.484375 0 L -0.203125 0 L 14.6875 -38.734375 Z M 15.921875 -14.4375 L 24.296875 -14.4375 L 20.1875 -26.765625 L 20.09375 -26.765625 Z M 15.921875 -14.4375 "/></g></g></g><g fill="#171717" fill-opacity="1"><g transform="translate(107.098032, 204.374987)"><g><path d="M 30.875 0 L 21.53125 0 L 21.53125 -14.484375 C 21.59375 -18.015625 20.1875 -19.78125 17.3125 -19.78125 C 14.125 -19.78125 12.5 -17.789062 12.4375 -13.8125 L 12.4375 0 L 3.078125 0 L 3.078125 -26.359375 L 12.4375 -26.359375 L 12.4375 -22.96875 L 12.53125 -22.96875 C 13.5625 -24.507812 14.753906 -25.601562 16.109375 -26.25 C 17.460938 -26.90625 19.082031 -27.234375 20.96875 -27.234375 C 24.351562 -27.191406 26.847656 -26.21875 28.453125 -24.3125 C 30.066406 -22.414062 30.875 -19.804688 30.875 -16.484375 Z M 30.875 0 "/></g></g></g><g fill="#171717" fill-opacity="1"><g transform="translate(141.049125, 204.374987)"><g><path d="M 32.875 -13.15625 C 32.875 -9.007812 31.390625 -5.632812 28.421875 -3.03125 C 25.460938 -0.425781 21.65625 0.875 17 0.875 C 12.375 0.875 8.570312 -0.414062 5.59375 -3 C 2.613281 -5.59375 1.125 -8.976562 1.125 -13.15625 C 1.125 -17.300781 2.613281 -20.679688 5.59375 -23.296875 C 8.570312 -25.921875 12.375 -27.234375 17 -27.234375 C 21.625 -27.234375 25.425781 -25.929688 28.40625 -23.328125 C 31.382812 -20.722656 32.875 -17.332031 32.875 -13.15625 Z M 17 -7.25 C 18.851562 -7.25 20.316406 -7.796875 21.390625 -8.890625 C 22.472656 -9.984375 23.015625 -11.40625 23.015625 -13.15625 C 23.015625 -14.832031 22.46875 -16.242188 21.375 -17.390625 C 20.28125 -18.535156 18.804688 -19.109375 16.953125 -19.109375 C 15.203125 -19.109375 13.769531 -18.550781 12.65625 -17.4375 C 11.550781 -16.320312 11 -14.894531 11 -13.15625 C 11 -11.375 11.550781 -9.941406 12.65625 -8.859375 C 13.769531 -7.785156 15.21875 -7.25 17 -7.25 Z M 17 -7.25 "/></g></g></g><g fill="#171717" fill-opacity="1"><g transform="translate(175.05158, 204.374987)"><g><path d="M 9.703125 -26.359375 L 16.03125 -12.84375 L 22.296875 -26.359375 L 32.78125 -26.359375 L 19.015625 0 L 13.046875 0 L -0.765625 -26.359375 Z M 9.703125 -26.359375 "/></g></g></g><g fill="#171717" fill-opacity="1"><g transform="translate(207.050872, 204.374987)"><g><path d="M 32.875 -13.15625 C 32.875 -9.007812 31.390625 -5.632812 28.421875 -3.03125 C 25.460938 -0.425781 21.65625 0.875 17 0.875 C 12.375 0.875 8.570312 -0.414062 5.59375 -3 C 2.613281 -5.59375 1.125 -8.976562 1.125 -13.15625 C 1.125 -17.300781 2.613281 -20.679688 5.59375 -23.296875 C 8.570312 -25.921875 12.375 -27.234375 17 -27.234375 C 21.625 -27.234375 25.425781 -25.929688 28.40625 -23.328125 C 31.382812 -20.722656 32.875 -17.332031 32.875 -13.15625 Z M 17 -7.25 C 18.851562 -7.25 20.316406 -7.796875 21.390625 -8.890625 C 22.472656 -9.984375 23.015625 -11.40625 23.015625 -13.15625 C 23.015625 -14.832031 22.46875 -16.242188 21.375 -17.390625 C 20.28125 -18.535156 18.804688 -19.109375 16.953125 -19.109375 C 15.203125 -19.109375 13.769531 -18.550781 12.65625 -17.4375 C 11.550781 -16.320312 11 -14.894531 11 -13.15625 C 11 -11.375 11.550781 -9.941406 12.65625 -8.859375 C 13.769531 -7.785156 15.21875 -7.25 17 -7.25 Z M 17 -7.25 "/></g></g></g><g fill="#171717" fill-opacity="1"><g transform="translate(241.053326, 204.374987)"><g><path d="M 13.5625 -26.359375 L 18.296875 -20.90625 L 23.015625 -26.359375 L 35.09375 -26.359375 L 24.203125 -14.28125 L 37.34375 0 L 25.078125 0 L 18.296875 -7.8125 L 11.515625 0 L -0.765625 0 L 12.375 -14.28125 L 1.703125 -26.359375 Z M 13.5625 -26.359375 "/></g></g></g><g fill="#171717" fill-opacity="1"><g transform="translate(300.108969, 213.956661)"><g><path d="M -15.828125 -3.484375 L -1.8125 -3.484375 L -1.8125 -8.296875 L 0 -8.296875 L 0 -1.515625 L -15.828125 -1.515625 Z M -15.828125 -3.484375 "/></g></g></g><g fill="#171717" fill-opacity="1"><g transform="translate(300.108969, 205.871628)"><g><path d="M -8.1875 -8.59375 L -8.1875 -8.625 L -9.828125 -8.625 L -9.828125 -10.515625 L 0 -10.515625 L 0 -8.625 L -1.53125 -8.625 L -1.53125 -8.59375 C -0.96875 -8.207031 -0.515625 -7.734375 -0.171875 -7.171875 C 0.171875 -6.609375 0.34375 -5.96875 0.34375 -5.25 C 0.34375 -3.851562 -0.160156 -2.71875 -1.171875 -1.84375 C -2.191406 -0.976562 -3.460938 -0.546875 -4.984375 -0.546875 C -5.941406 -0.546875 -6.816406 -0.753906 -7.609375 -1.171875 C -8.410156 -1.597656 -9.03125 -2.160156 -9.46875 -2.859375 C -9.90625 -3.554688 -10.125 -4.332031 -10.125 -5.1875 C -10.125 -5.90625 -9.945312 -6.550781 -9.59375 -7.125 C -9.25 -7.707031 -8.78125 -8.195312 -8.1875 -8.59375 Z M -4.90625 -8.734375 C -5.976562 -8.734375 -6.832031 -8.429688 -7.46875 -7.828125 C -8.113281 -7.234375 -8.4375 -6.460938 -8.4375 -5.515625 C -8.4375 -4.640625 -8.09375 -3.90625 -7.40625 -3.3125 C -6.726562 -2.726562 -5.894531 -2.4375 -4.90625 -2.4375 C -3.90625 -2.4375 -3.0625 -2.726562 -2.375 -3.3125 C -1.6875 -3.90625 -1.34375 -4.648438 -1.34375 -5.546875 C -1.34375 -6.492188 -1.675781 -7.257812 -2.34375 -7.84375 C -3.007812 -8.4375 -3.863281 -8.734375 -4.90625 -8.734375 Z M -4.90625 -8.734375 "/></g></g></g><g fill="#171717" fill-opacity="1"><g transform="translate(300.108969, 194.195577)"><g><path d="M -18.234375 -3.046875 L -8.1875 -3.046875 L -8.1875 -3.09375 C -8.78125 -3.476562 -9.25 -3.960938 -9.59375 -4.546875 C -9.945312 -5.128906 -10.125 -5.785156 -10.125 -6.515625 C -10.125 -7.347656 -9.898438 -8.117188 -9.453125 -8.828125 C -9.003906 -9.546875 -8.382812 -10.109375 -7.59375 -10.515625 C -6.8125 -10.921875 -5.941406 -11.125 -4.984375 -11.125 C -3.441406 -11.125 -2.164062 -10.6875 -1.15625 -9.8125 C -0.15625 -8.9375 0.34375 -7.804688 0.34375 -6.421875 C 0.34375 -5.710938 0.171875 -5.070312 -0.171875 -4.5 C -0.515625 -3.9375 -0.96875 -3.46875 -1.53125 -3.09375 L -1.53125 -3.046875 L 0 -3.046875 L 0 -1.15625 L -18.234375 -1.15625 Z M -4.90625 -9.234375 C -5.988281 -9.234375 -6.847656 -8.925781 -7.484375 -8.3125 C -8.117188 -7.707031 -8.4375 -6.945312 -8.4375 -6.03125 C -8.4375 -5.144531 -8.097656 -4.40625 -7.421875 -3.8125 C -6.742188 -3.226562 -5.90625 -2.9375 -4.90625 -2.9375 C -3.925781 -2.9375 -3.085938 -3.222656 -2.390625 -3.796875 C -1.691406 -4.367188 -1.34375 -5.117188 -1.34375 -6.046875 C -1.34375 -7.015625 -1.675781 -7.785156 -2.34375 -8.359375 C -3.007812 -8.941406 -3.863281 -9.234375 -4.90625 -9.234375 Z M -4.90625 -9.234375 "/></g></g></g><g fill="#171717" fill-opacity="1"><g transform="translate(300.108969, 182.519525)"><g><path d="M -8.40625 -6.78125 L -7.578125 -5.25 C -7.816406 -5.132812 -8.019531 -4.96875 -8.1875 -4.75 C -8.351562 -4.539062 -8.4375 -4.285156 -8.4375 -3.984375 C -8.4375 -3.722656 -8.34375 -3.488281 -8.15625 -3.28125 C -7.96875 -3.070312 -7.738281 -2.96875 -7.46875 -2.96875 C -7.175781 -2.96875 -6.914062 -3.101562 -6.6875 -3.375 C -6.457031 -3.65625 -6.21875 -4.09375 -5.96875 -4.6875 L -5.71875 -5.25 C -5.375 -6.019531 -4.984375 -6.585938 -4.546875 -6.953125 C -4.117188 -7.328125 -3.578125 -7.515625 -2.921875 -7.515625 C -2.003906 -7.515625 -1.226562 -7.1875 -0.59375 -6.53125 C 0.03125 -5.875 0.34375 -5.078125 0.34375 -4.140625 C 0.34375 -3.378906 0.140625 -2.679688 -0.265625 -2.046875 C -0.671875 -1.421875 -1.207031 -0.984375 -1.875 -0.734375 L -2.609375 -2.359375 C -2.242188 -2.546875 -1.941406 -2.773438 -1.703125 -3.046875 C -1.460938 -3.328125 -1.34375 -3.691406 -1.34375 -4.140625 C -1.34375 -4.546875 -1.46875 -4.894531 -1.71875 -5.1875 C -1.96875 -5.476562 -2.304688 -5.625 -2.734375 -5.625 C -3.015625 -5.625 -3.238281 -5.550781 -3.40625 -5.40625 C -3.570312 -5.257812 -3.773438 -4.96875 -4.015625 -4.53125 L -4.78125 -3.09375 C -5.101562 -2.457031 -5.445312 -1.984375 -5.8125 -1.671875 C -6.175781 -1.359375 -6.660156 -1.203125 -7.265625 -1.203125 C -8.035156 -1.203125 -8.703125 -1.488281 -9.265625 -2.0625 C -9.835938 -2.632812 -10.125 -3.3125 -10.125 -4.09375 C -10.125 -4.695312 -9.96875 -5.226562 -9.65625 -5.6875 C -9.351562 -6.15625 -8.9375 -6.519531 -8.40625 -6.78125 Z M -8.40625 -6.78125 "/></g></g></g><g clip-path="url(#091f517cdd)"><path fill="#171717" d="M 319.515625 319.585938 L 328.257812 319.585938 L 328.257812 328.332031 L 319.515625 328.332031 Z M 319.515625 319.585938 " fill-opacity="1" fill-rule="nonzero"/></g><g clip-path="url(#eeefd1e85b)"><path fill="#171717" d="M 33.507812 42.425781 L 42.351562 42.425781 L 42.351562 319.585938 L 33.507812 319.585938 Z M 33.507812 42.425781 " fill-opacity="1" fill-rule="nonzero"/></g><g clip-path="url(#b6c3c09c68)"><path fill="#171717" d="M 33.507812 319.585938 L 42.351562 319.585938 L 42.351562 328.332031 L 33.507812 328.332031 Z M 33.507812 319.585938 " fill-opacity="1" fill-rule="nonzero"/></g><g clip-path="url(#c1067a19fe)"><path fill="#171717" d="M 319.515625 42.425781 L 328.257812 42.425781 L 328.257812 319.585938 L 319.515625 319.585938 Z M 319.515625 42.425781 " fill-opacity="1" fill-rule="nonzero"/></g><g clip-path="url(#5973d51190)"><path fill="#171717" d="M 42.351562 319.585938 L 319.515625 319.585938 L 319.515625 328.332031 L 42.351562 328.332031 Z M 42.351562 319.585938 " fill-opacity="1" fill-rule="nonzero"/></g><g clip-path="url(#c79423fc51)"><path fill="#171717" d="M 319.515625 33.582031 L 328.257812 33.582031 L 328.257812 42.425781 L 319.515625 42.425781 Z M 319.515625 33.582031 " fill-opacity="1" fill-rule="nonzero"/></g><g clip-path="url(#a73e12411c)"><path fill="#171717" d="M 33.507812 33.582031 L 42.351562 33.582031 L 42.351562 42.425781 L 33.507812 42.425781 Z M 33.507812 33.582031 " fill-opacity="1" fill-rule="nonzero"/></g><g clip-path="url(#26d3cfa9f9)"><path fill="#171717" d="M 42.351562 33.582031 L 319.515625 33.582031 L 319.515625 42.425781 L 42.351562 42.425781 Z M 42.351562 33.582031 " fill-opacity="1" fill-rule="nonzero"/></g><g clip-path="url(#96c0513b08)"><path fill="#171717" d="M 332.9375 334.457031 L 341.683594 334.457031 L 341.683594 343.203125 L 332.9375 343.203125 Z M 332.9375 334.457031 " fill-opacity="1" fill-rule="nonzero"/></g><g clip-path="url(#9a930f51fd)"><path fill="#171717" d="M 46.933594 57.296875 L 55.777344 57.296875 L 55.777344 334.457031 L 46.933594 334.457031 Z M 46.933594 57.296875 " fill-opacity="1" fill-rule="nonzero"/></g><g clip-path="url(#e2f0e4e569)"><path fill="#171717" d="M 46.933594 334.457031 L 55.777344 334.457031 L 55.777344 343.203125 L 46.933594 343.203125 Z M 46.933594 334.457031 " fill-opacity="1" fill-rule="nonzero"/></g><g clip-path="url(#5af511dc4c)"><path fill="#171717" d="M 332.9375 57.296875 L 341.683594 57.296875 L 341.683594 334.457031 L 332.9375 334.457031 Z M 332.9375 57.296875 " fill-opacity="1" fill-rule="nonzero"/></g><g clip-path="url(#51856576d4)"><path fill="#171717" d="M 55.777344 334.457031 L 332.9375 334.457031 L 332.9375 343.203125 L 55.777344 343.203125 Z M 55.777344 334.457031 " fill-opacity="1" fill-rule="nonzero"/></g><g clip-path="url(#367f1ee8ca)"><path fill="#171717" d="M 332.9375 48.453125 L 341.683594 48.453125 L 341.683594 57.296875 L 332.9375 57.296875 Z M 332.9375 48.453125 " fill-opacity="1" fill-rule="nonzero"/></g><g clip-path="url(#1122f2b94e)"><path fill="#171717" d="M 46.933594 48.453125 L 55.777344 48.453125 L 55.777344 57.296875 L 46.933594 57.296875 Z M 46.933594 48.453125 " fill-opacity="1" fill-rule="nonzero"/></g><g clip-path="url(#f959e72f75)"><path fill="#171717" d="M 55.777344 48.453125 L 332.9375 48.453125 L 332.9375 57.296875 L 55.777344 57.296875 Z M 55.777344 48.453125 " fill-opacity="1" fill-rule="nonzero"/></g></svg>